{
  "accessors": [
    {
      "bufferView": 2,
      "componentType": 5126,
      "count": 65532,
      "max": [
        0.05425144359469414,
        0.04158179089426994,
        0.1535317301750183
      ],
      "min": [
        -0.047359518706798553,
        -0.03184618055820465,
        -0.07405069470405579
      ],
      "type": "VEC3"
    },
    {
      "bufferView": 2,
      "byteOffset": 786384,
      "componentType": 5126,
      "count": 65532,
      "max": [
        1.0,
        0.9999999403953552,
        0.999804675579071
      ],
      "min": [
        -0.9999995231628418,
        -0.9999566078186035,
        -0.9999811053276062
      ],
      "type": "VEC3"
    },
    {
      "bufferView": 1,
      "componentType": 5126,
      "count": 65532,
      "max": [
        0.9914609789848328,
        0.9920380115509033
      ],
      "min": [
        0.007953000254929066,
        0.3928520083427429
      ],
      "type": "VEC2"
    },
    {
      "bufferView": 0,
      "componentType": 5125,
      "count": 366642,
      "type": "SCALAR"
    },
    {
      "bufferView": 2,
      "byteOffset": 1572768,
      "componentType": 5126,
      "count": 65532,
      "max": [
        0.05397912114858627,
        0.04158179089426994,
        0.15448124706745148
      ],
      "min": [
        -0.04753642901778221,
        -0.031627751886844635,
        -0.07352283596992493
      ],
      "type": "VEC3"
    },
    {
      "bufferView": 2,
      "byteOffset": 2359152,
      "componentType": 5126,
      "count": 65532,
      "max": [
        0.9999970197677612,
        0.9999998807907104,
        0.9999802112579346
      ],
      "min": [
        -0.9999761581420898,
        -0.9999973177909851,
        -0.9999487400054932
      ],
      "type": "VEC3"
    },
    {
      "bufferView": 1,
      "byteOffset": 524256,
      "componentType": 5126,
      "count": 65532,
      "max": [
        0.9706540107727051,
        0.9512490034103394
      ],
      "min": [
        0.06226800009608269,
        0.43644100427627563
      ],
      "type": "VEC2"
    },
    {
      "bufferView": 0,
      "byteOffset": 1466568,
      "componentType": 5125,
      "count": 361929,
      "type": "SCALAR"
    },
    {
      "bufferView": 2,
      "byteOffset": 3145536,
      "componentType": 5126,
      "count": 10954,
      "max": [
        0.052876196801662445,
        0.04158179089426994,
        0.1533888280391693
      ],
      "min": [
        -0.04558097571134567,
        -0.03184618055820465,
        -0.0742412731051445
      ],
      "type": "VEC3"
    },
    {
      "bufferView": 2,
      "byteOffset": 3276984,
      "componentType": 5126,
      "count": 10954,
      "max": [
        0.9993046522140503,
        0.9999914765357971,
        0.998767077922821
      ],
      "min": [
        -0.9998548030853271,
        -0.9997080564498901,
        -0.9997411370277405
      ],
      "type": "VEC3"
    },
    {
      "bufferView": 1,
      "byteOffset": 1048512,
      "componentType": 5126,
      "count": 10954,
      "max": [
        0.9918919801712036,
        0.9117529988288879
      ],
      "min": [
        0.03353099897503853,
        0.4772390127182007
      ],
      "type": "VEC2"
    },
    {
      "bufferView": 0,
      "byteOffset": 2914284,
      "componentType": 5125,
      "count": 57099,
      "type": "SCALAR"
    },
    {
      "bufferView": 2,
      "byteOffset": 3408432,
      "componentType": 5126,
      "count": 18795,
      "max": [
        0.04446457698941231,
        0.04158179834485054,
        0.14859485626220703
      ],
      "min": [
        -0.040687382221221924,
        0.041581783443689346,
        -0.0695284828543663
      ],
      "type": "VEC3"
    },
    {
      "bufferView": 2,
      "byteOffset": 3633972,
      "componentType": 5126,
      "count": 18795,
      "max": [
        0.9791062474250793,
        1.0,
        0.9979689717292786
      ],
      "min": [
        -0.9971903562545776,
        -0.7502484917640686,
        -0.9843490719795227
      ],
      "type": "VEC3"
    },
    {
      "bufferView": 1,
      "byteOffset": 1136144,
      "componentType": 5126,
      "count": 18795,
      "max": [
        0.0,
        0.0
      ],
      "min": [
        0.0,
        0.0
      ],
      "type": "VEC2"
    },
    {
      "bufferView": 0,
      "byteOffset": 3142680,
      "componentType": 5125,
      "count": 108498,
      "type": "SCALAR"
    }
  ],
  "asset": {
    "extras": {
      "author": "Terrie (https://sketchfab.com/terrielsimmons)",
      "license": "CC-BY-4.0 (http://creativecommons.org/licenses/by/4.0/)",
      "source": "https://sketchfab.com/3d-models/sakura-cake-roll-9234c6ed4bb048f5a646042c1512b18a",
      "title": "Sakura Cake Roll"
    },
    "generator": "Sketchfab-15.15.0",
    "version": "2.0"
  },
  "bufferViews": [
    {
      "buffer": 0,
      "byteLength": 3576672,
      "name": "floatBufferViews",
      "target": 34963
    },
    {
      "buffer": 0,
      "byteLength": 1286504,
      "byteOffset": 3576672,
      "byteStride": 8,
      "name": "floatBufferViews",
      "target": 34962
    },
    {
      "buffer": 0,
      "byteLength": 3859512,
      "byteOffset": 4863176,
      "byteStride": 12,
      "name": "floatBufferViews",
      "target": 34962
    }
  ],
  "buffers": [
    {
      "byteLength": 8722688,
      "uri": "tf.bin"
    }
  ],
  "extensionsUsed": [
    "KHR_materials_unlit"
  ],
  "images": [
    {
      "uri": "textures/material0000_baseColor.png"
    }
  ],
  "materials": [
    {
      "doubleSided": true,
      "extensions": {
        "KHR_materials_unlit": {}
      },
      "name": "material0000",
      "pbrMetallicRoughness": {
        "baseColorTexture": {
          "index": 0
        },
        "metallicFactor": 0.0
      }
    }
  ],
  "meshes": [
    {
      "name": "Object_0",
      "primitives": [
        {
          "attributes": {
            "NORMAL": 1,
            "POSITION": 0,
            "TEXCOORD_0": 2
          },
          "indices": 3,
          "material": 0,
          "mode": 4
        }
      ]
    },
    {
      "name": "Object_1",
      "primitives": [
        {
          "attributes": {
            "NORMAL": 5,
            "POSITION": 4,
            "TEXCOORD_0": 6
          },
          "indices": 7,
          "material": 0,
          "mode": 4
        }
      ]
    },
    {
      "name": "Object_2",
      "primitives": [
        {
          "attributes": {
            "NORMAL": 9,
            "POSITION": 8,
            "TEXCOORD_0": 10
          },
          "indices": 11,
          "material": 0,
          "mode": 4
        }
      ]
    },
    {
      "name": "Object_3",
      "primitives": [
        {
          "attributes": {
            "NORMAL": 13,
            "POSITION": 12,
            "TEXCOORD_0": 14
          },
          "indices": 15,
          "material": 0,
          "mode": 4
        }
      ]
    }
  ],
  "nodes": [
    {
      "children": [
        1
      ],
      "matrix": [
        1.901323676109314,
        0.0,
        0.0,
        0.0,
        0.0,
        -1.901323676109314,
        -8.443573289926016e-16,
        0.0,
        0.0,
        8.443573289926016e-16,
        -1.901323676109314,
        0.0,
        0.0,
        0.0,
        0.0,
        1.0
      ],
      "name": "Sketchfab_model"
    },
    {
      "children": [
        2,
        3,
        4,
        5
      ],
      "name": "sakuracake.obj.cleaner.materialmerger.gles"
    },
    {
      "mesh": 0,
      "name": "Object_2"
    },
    {
      "mesh": 1,
      "name": "Object_3"
    },
    {
      "mesh": 2,
      "name": "Object_4"
    },
    {
      "mesh": 3,
      "name": "Object_5"
    }
  ],
  "samplers": [
    {
      "magFilter": 9729,
      "minFilter": 9987,
      "wrapS": 10497,
      "wrapT": 10497
    }
  ],
  "scene": 0,
  "scenes": [
    {
      "name": "Sketchfab_Scene",
      "nodes": [
        0
      ]
    }
  ],
  "textures": [
    {
      "sampler": 0,
      "source": 0
    }
  ]
}
